:SAMPLES-PER-SECOND 30
:FRAME-RANGE 1-2009
:FULLY-SPECIFIED
:DEGREES
440
root  11.1455 38.3891 61.6162 -176.43 5.00721 -179.685
RightUpLeg  3.2069 0.414326 3.34738
RightLeg  16.3192 5.92323 1.38486
RightFoot  -21.5494 -0.695024 -6.14305
RightToes  2.96424e-010 1.2921e-014 -6.02303e-014
Spine  -8.60348 1.07622 3.09477
Spine1  14.456 2.0319 -4.03107
HEad  9.17888 12.4668 -0.376749
LeftShoulder1  1.01334 -1.55828 -14.1582
LeftArm  -5.21616 23.5229 -19.4934
LeftForeArm  20.6231 7.45601 -9.51886
LeftHand  0.00414125 5.58385 12.4332
RightShoulder  2.34986 3.83674 26.9532
RightArm  -24.0167 7.16556 48.5619
RightForeArm  66.4735 -3.65921 4.15496
RightHand  0.0445233 -5.7675 -17.7193
LeftUpLeg  -28.6471 -1.05186 2.27642
LeftLeg  2.17461 8.68171 3.26313
LeftFoot  -5.36767 0.347796 -6.04598
LeftToes  -1.2485e-010 1.20979e-011 -1.0929e-011
441
root  11.0178 38.1491 60.113 -176.548 5.12782 -179.668
RightUpLeg  5.7127 0.751162 3.04007
RightLeg  16.7295 5.47143 1.38127
RightFoot  -22.9032 -0.737843 -5.75173
RightToes  2.96424e-010 1.2921e-014 -6.02303e-014
Spine  -8.76396 1.60045 3.22135
Spine1  15.0562 2.71244 -4.41813
HEad  8.86333 12.1559 -0.555427
LeftShoulder1  0.894475 -1.12961 -13.4232
LeftArm  -3.26303 26.124 -16.562
LeftForeArm  21.8703 7.48394 -9.74021
LeftHand  -0.00537464 5.49156 12.4705
RightShoulder  2.41748 4.01157 27.1003
RightArm  -24.2086 6.91135 48.0093
RightForeArm  66.4595 -3.46782 4.10972
RightHand  0.0571611 -5.84378 -17.9404
LeftUpLeg  -28.7178 -1.42563 2.17397
LeftLeg  -2.51203 10.0438 2.81706
LeftFoot  -7.96142 0.219767 -5.82911
LeftToes  -1.2485e-010 1.20979e-011 -1.0929e-011
442
root  10.8315 37.8434 58.5488 -176.686 4.49499 -179.432
RightUpLeg  7.90012 1.12374 2.95249
RightLeg  18.1112 5.06104 1.53265
RightFoot  -24.1753 -0.700335 -4.76849
RightToes  2.96424e-010 1.2921e-014 -6.02303e-014
Spine  -8.94254 1.76456 3.61427
Spine1  15.6737 2.90918 -4.61088
HEad  8.2706 11.9278 -0.906085
LeftShoulder1  0.858556 -1.06896 -12.8258
LeftArm  -2.04615 28.2038 -14.8041
LeftForeArm  22.2754 7.48149 -9.74165
LeftHand  -0.0166758 5.38431 12.3507
RightShoulder  2.42086 3.97403 27.3249
RightArm  -24.4796 7.08989 47.8391
RightForeArm  66.4392 -3.95855 3.88241
RightHand  0.0527347 -5.80552 -18.2441
LeftUpLeg  -30.4042 -1.44586 1.93404
LeftLeg  0.978849 9.1577 2.90878
LeftFoot  -8.39305 0.197381 -5.71322
LeftToes  -1.2485e-010 1.20979e-011 -1.0929e-011
443
root  10.6362 37.5974 56.874 -176.674 3.88829 -179.752
RightUpLeg  9.86021 1.82799 2.45392
RightLeg  19.8766 4.55459 1.61276
RightFoot  -24.6684 -0.52032 -3.02287
RightToes  2.96424e-010 1.2921e-014 -6.02303e-014
Spine  -9.71948 1.9709 3.30332
Spine1  16.59 3.20996 -4.73402
HEad  8.2304 11.506 -1.12961
LeftShoulder1  0.854988 -1.07225 -12.7195
LeftArm  -1.4716 28.7191 -14.246
LeftForeArm  23.4002 7.49203 -9.85904
LeftHand  -0.00596216 5.48578 12.4783
RightShoulder  2.39534 3.82314 27.6808
RightArm  -25.2295 6.93686 47.7979
RightForeArm  66.9387 -4.70451 3.34522
RightHand  0.0548861 -5.82018 -18.217
LeftUpLeg  -31.6872 -2.63606 1.26499
LeftLeg  6.88262 10.3644 3.63139
LeftFoot  -7.2103 0.177718 -3.72778
LeftToes  -1.2485e-010 1.20979e-011 -1.0929e-011
444
root  10.4282 37.5729 55.2428 -176.724 4.49424 178.977
RightUpLeg  10.9324 3.78079 0.888872
RightLeg  22.7458 4.70244 1.94728
RightFoot  -23.5316 -0.263956 -0.979683
RightToes  2.96424e-010 1.2921e-014 -6.02303e-014
Spine  -9.65636 2.37587 1.96122
Spine1  16.6484 4.01354 -5.54538
HEad  8.49033 11.484 -1.17183
LeftShoulder1  0.81741 -0.875651 -12.7403
LeftArm  -1.5171 29.1722 -14.9924
LeftForeArm  23.8881 7.00769 -9.88107
LeftHand  -0.0625234 4.96016 13.1261
RightShoulder  2.42332 3.82876 28.0595
RightArm  -25.9778 6.26764 48.1191
RightForeArm  67.8046 -5.27972 2.85829
RightHand  0.0557153 -5.82217 -18.3242
LeftUpLeg  -31.7496 -4.61713 0.481112
LeftLeg  10.5647 13.3928 4.92679
LeftFoot  -1.21822 0.265972 -2.92058
LeftToes  -1.2485e-010 1.20979e-011 -1.0929e-011
445
root  10.2128 37.5642 53.5802 -176.744 4.58652 177.366
RightUpLeg  10.0561 4.71853 -1.38493
RightLeg  29.0377 5.99298 3.36517
RightFoot  -20.9451 0.00852604 1.78986
RightToes  2.96424e-010 1.2921e-014 -6.02303e-014
Spine  -9.68312 2.49367 0.0635593
Spine1  16.5767 4.35507 -5.9847
HEad  8.24098 11.6894 -1.09591
LeftShoulder1  0.794793 -0.642194 -13.3826
LeftArm  -2.27172 28.5522 -17.1308
LeftForeArm  22.7095 5.34116 -9.94371
LeftHand  -0.0707835 4.87926 12.9419
RightShoulder  2.45512 3.80403 28.6429
RightArm  -27.1313 5.84132 48.8289
RightForeArm  69.1404 -5.12076 2.21523
RightHand  0.0713972 -5.90953 -18.6802
LeftUpLeg  -31.6802 -4.80561 -1.04724
LeftLeg  14.4888 13.5545 4.80244
LeftFoot  1.26761 0.523977 -4.81171
LeftToes  -1.2485e-010 1.20979e-011 -1.0929e-011
446
root  9.92843 37.6697 51.9592 -176.729 3.5858 176.698
RightUpLeg  6.92734 3.14882 -3.76612
RightLeg  38.5218 8.54561 6.97712
RightFoot  -14.4245 0.0757372 6.44675
RightToes  2.96424e-010 1.2921e-014 -6.02303e-014
Spine  -9.72406 2.31645 -0.177821
Spine1  16.3765 4.28312 -6.52189
HEad  8.68751 11.5249 -1.07362
LeftShoulder1  0.845733 -0.683127 -14.5597
LeftArm  -4.37557 25.364 -20.9654
LeftForeArm  21.3615 4.89155 -9.76402
LeftHand  -0.0834014 4.74577 12.5445
RightShoulder  2.4751 3.87862 28.5614
RightArm  -28.8369 5.33056 50.0632
RightForeArm  70.1251 -4.91346 1.21357
RightHand  0.101564 -6.09277 -18.8029
LeftUpLeg  -30.7285 -4.21594 -2.79783
LeftLeg  17.0043 11.9056 4.46874
LeftFoot  2.07563 0.749405 -6.47492
LeftToes  -1.2485e-010 1.20979e-011 -1.0929e-011
447
root  9.622 37.8251 50.4727 -176.805 2.51911 176.171
RightUpLeg  1.69497 1.23787 -5.71249
RightLeg  49.6449 7.54437 9.08496
RightFoot  -4.99095 -0.528068 8.88776
RightToes  2.96424e-010 1.2921e-014 -6.02303e-014
Spine  -9.21673 2.09998 -0.171315
Spine1  15.5141 4.0963 -7.04794
HEad  9.57054 11.3225 -1.31985
LeftShoulder1  0.881645 -0.651821 -15.7365
LeftArm  -6.83335 20.5159 -25.9357
LeftForeArm  18.5932 4.50631 -9.52716
LeftHand  -0.0896022 4.67827 12.3777
RightShoulder  2.45439 3.94059 27.963
RightArm  -30.16 4.42644 51.549
RightForeArm  71.5318 -4.72808 0.447738
RightHand  0.114246 -6.2201 -17.8776
LeftUpLeg  -29.1132 -3.58564 -4.72665
LeftLeg  18.1444 9.85843 3.92456
LeftFoot  2.67871 0.6183 -5.1594
LeftToes  -1.2485e-010 1.20979e-011 -1.0929e-011
